<svg xmlns="http://www.w3.org/2000/svg" width="64" height="64" viewBox="0 0 64 64" fill="none">
<g filter="url(#filter0_d_6847_84661)">
<mask id="path-1-outside-1_6847_84661" maskUnits="userSpaceOnUse" x="12.9998" y="20.0005" width="38" height="24" fill="black">
<rect fill="white" x="12.9998" y="20.0005" width="38" height="24"/>
<path d="M30.2531 30.04L40.8304 30.0538V25.0005L47.9998 32.0144L40.8304 39.0006V33.9197L30.2531 33.9059L23.2118 33.9197V39.0006L15.9998 32.0006L23.2118 25.0005L23.2118 30.0538L30.2531 30.04Z"/>
</mask>
<path d="M30.2531 30.04L40.8304 30.0538V25.0005L47.9998 32.0144L40.8304 39.0006V33.9197L30.2531 33.9059L23.2118 33.9197V39.0006L15.9998 32.0006L23.2118 25.0005L23.2118 30.0538L30.2531 30.04Z" fill="black"/>
<path d="M30.2531 30.04L30.2557 28.04L30.2492 28.04L30.2531 30.04ZM40.8304 30.0538L40.8278 32.0538L42.8304 32.0564V30.0538H40.8304ZM40.8304 25.0005L42.229 23.5709L38.8304 20.246V25.0005H40.8304ZM47.9998 32.0144L49.3956 33.4468L50.8626 32.0172L49.3984 30.5847L47.9998 32.0144ZM40.8304 39.0006H38.8304V43.742L42.2262 40.4329L40.8304 39.0006ZM40.8304 33.9197H42.8304V31.9223L40.833 31.9197L40.8304 33.9197ZM30.2531 33.9059L30.2557 31.9059L30.2492 31.9059L30.2531 33.9059ZM23.2118 33.9197L23.2079 31.9197L21.2118 31.9236V33.9197H23.2118ZM23.2118 39.0006L21.8188 40.4357L25.2118 43.7289V39.0006H23.2118ZM15.9998 32.0006L14.6068 30.5654L13.1282 32.0006L14.6068 33.4357L15.9998 32.0006ZM23.2118 25.0005L25.2118 25.0005L25.2118 20.2722L21.8188 23.5654L23.2118 25.0005ZM23.2118 30.0538L21.2118 30.0538L21.2118 32.0577L23.2157 32.0538L23.2118 30.0538ZM30.2505 32.04L40.8278 32.0538L40.833 28.0538L30.2557 28.04L30.2505 32.04ZM42.8304 30.0538V25.0005H38.8304V30.0538H42.8304ZM39.4318 26.4302L46.6011 33.444L49.3984 30.5847L42.229 23.5709L39.4318 26.4302ZM46.604 30.582L39.4346 37.5682L42.2262 40.4329L49.3956 33.4468L46.604 30.582ZM42.8304 39.0006V33.9197H38.8304V39.0006H42.8304ZM40.833 31.9197L30.2557 31.9059L30.2505 35.9059L40.8278 35.9197L40.833 31.9197ZM30.2492 31.9059L23.2079 31.9197L23.2157 35.9197L30.257 35.9059L30.2492 31.9059ZM21.2118 33.9197V39.0006H25.2118V33.9197H21.2118ZM24.6047 37.5654L17.3927 30.5654L14.6068 33.4357L21.8188 40.4357L24.6047 37.5654ZM17.3927 33.4357L24.6047 26.4357L21.8188 23.5654L14.6068 30.5654L17.3927 33.4357ZM21.2118 25.0005L21.2118 30.0538L25.2118 30.0538L25.2118 25.0005L21.2118 25.0005ZM23.2157 32.0538L30.257 32.04L30.2492 28.04L23.2079 28.0538L23.2157 32.0538Z" fill="white" mask="url(#path-1-outside-1_6847_84661)"/>
</g>
<defs>
<filter id="filter0_d_6847_84661" x="9.12817" y="18.246" width="45.7344" height="31.496" filterUnits="userSpaceOnUse" color-interpolation-filters="sRGB">
<feFlood flood-opacity="0" result="BackgroundImageFix"/>
<feColorMatrix in="SourceAlpha" type="matrix" values="0 0 0 0 0 0 0 0 0 0 0 0 0 0 0 0 0 0 127 0" result="hardAlpha"/>
<feOffset dy="2"/>
<feGaussianBlur stdDeviation="2"/>
<feComposite in2="hardAlpha" operator="out"/>
<feColorMatrix type="matrix" values="0 0 0 0 0 0 0 0 0 0 0 0 0 0 0 0 0 0 0.3 0"/>
<feBlend mode="normal" in2="BackgroundImageFix" result="effect1_dropShadow_6847_84661"/>
<feBlend mode="normal" in="SourceGraphic" in2="effect1_dropShadow_6847_84661" result="shape"/>
</filter>
</defs>
</svg>