<svg xmlns="http://www.w3.org/2000/svg" width="64" height="64" viewBox="0 0 64 64" fill="none">
<g filter="url(#filter0_d_6847_84663)">
<mask id="path-1-outside-1_6847_84663" maskUnits="userSpaceOnUse" x="13" y="13.0005" width="38" height="38" fill="black">
<rect fill="white" x="13" y="13.0005" width="38" height="38"/>
<path fill-rule="evenodd" clip-rule="evenodd" d="M33.9602 30.0948L40.788 30.0814V25.0005L48 32.0005L40.788 39.0006L40.788 33.9473L33.9557 33.9607L33.9468 40.8312H39L31.9862 48.0006L25 40.8312H30.0809L30.0898 33.9563L23.1693 33.9473V39.0005L16 31.9867L23.1693 25.0005V30.0814L30.0944 30.0905L30.0809 23.2126H25L32 16.0005L39 23.2126L33.9468 23.2126L33.9602 30.0948Z"/>
</mask>
<path fill-rule="evenodd" clip-rule="evenodd" d="M33.9602 30.0948L40.788 30.0814V25.0005L48 32.0005L40.788 39.0006L40.788 33.9473L33.9557 33.9607L33.9468 40.8312H39L31.9862 48.0006L25 40.8312H30.0809L30.0898 33.9563L23.1693 33.9473V39.0005L16 31.9867L23.1693 25.0005V30.0814L30.0944 30.0905L30.0809 23.2126H25L32 16.0005L39 23.2126L33.9468 23.2126L33.9602 30.0948Z" fill="black"/>
<path d="M33.9602 30.0948L31.9602 30.0987L31.9642 32.0987L33.9642 32.0948L33.9602 30.0948ZM40.788 30.0814L40.7919 32.0814L42.788 32.0775V30.0814H40.788ZM40.788 25.0005L42.181 23.5654L38.788 20.2722V25.0005H40.788ZM48 32.0005L49.393 33.4357L50.8716 32.0005L49.393 30.5654L48 32.0005ZM40.788 39.0006H38.788L38.788 43.7289L42.181 40.4357L40.788 39.0006ZM40.788 33.9473H42.788L42.788 31.9434L40.7841 31.9473L40.788 33.9473ZM33.9557 33.9607L33.9518 31.9607L31.9583 31.9646L31.9557 33.9581L33.9557 33.9607ZM33.9468 40.8312L31.9468 40.8286L31.9441 42.8312H33.9468V40.8312ZM39 40.8312L40.4296 42.2298L43.7545 38.8312H39V40.8312ZM31.9862 48.0006L30.5538 49.3964L31.9834 50.8634L33.4158 49.3992L31.9862 48.0006ZM25 40.8312V38.8312H20.2586L23.5676 42.227L25 40.8312ZM30.0809 40.8312V42.8312H32.0783L32.0809 40.8338L30.0809 40.8312ZM30.0898 33.9563L32.0898 33.9589L32.0925 31.9589L30.0925 31.9563L30.0898 33.9563ZM23.1693 33.9473L23.172 31.9473L21.1693 31.9447V33.9473H23.1693ZM23.1693 39.0005L21.7707 40.4302L25.1693 43.7551V39.0005H23.1693ZM16 31.9867L14.6042 30.5543L13.1372 31.9839L14.6014 33.4164L16 31.9867ZM23.1693 25.0005H25.1693V20.2591L21.7735 23.5682L23.1693 25.0005ZM23.1693 30.0814H21.1693V32.0788L23.1667 32.0814L23.1693 30.0814ZM30.0944 30.0905L30.0917 32.0905L32.0983 32.0931L32.0944 30.0865L30.0944 30.0905ZM30.0809 23.2126L32.0809 23.2086L32.077 21.2126H30.0809V23.2126ZM25 23.2126L23.5649 21.8196L20.2716 25.2126H25V23.2126ZM32 16.0005L33.4352 14.6076L32 13.129L30.5649 14.6076L32 16.0005ZM39 23.2126V25.2126L43.7284 25.2126L40.4352 21.8196L39 23.2126ZM33.9468 23.2126V21.2126L31.9428 21.2126L31.9468 23.2165L33.9468 23.2126ZM33.9642 32.0948L40.7919 32.0814L40.7841 28.0814L33.9563 28.0948L33.9642 32.0948ZM42.788 30.0814V25.0005H38.788V30.0814H42.788ZM39.395 26.4357L46.607 33.4357L49.393 30.5654L42.181 23.5654L39.395 26.4357ZM46.607 30.5654L39.395 37.5654L42.181 40.4357L49.393 33.4357L46.607 30.5654ZM42.788 39.0006L42.788 33.9473H38.788L38.788 39.0006H42.788ZM40.7841 31.9473L33.9518 31.9607L33.9596 35.9607L40.7919 35.9473L40.7841 31.9473ZM31.9557 33.9581L31.9468 40.8286L35.9467 40.8338L35.9557 33.9633L31.9557 33.9581ZM33.9468 42.8312H39V38.8312H33.9468V42.8312ZM37.5704 39.4326L30.5566 46.6019L33.4158 49.3992L40.4296 42.2298L37.5704 39.4326ZM33.4186 46.6048L26.4324 39.4354L23.5676 42.227L30.5538 49.3964L33.4186 46.6048ZM25 42.8312H30.0809V38.8312H25V42.8312ZM32.0809 40.8338L32.0898 33.9589L28.0898 33.9537L28.0809 40.8286L32.0809 40.8338ZM30.0925 31.9563L23.172 31.9473L23.1667 35.9473L30.0872 35.9563L30.0925 31.9563ZM21.1693 33.9473V39.0005H25.1693V33.9473H21.1693ZM24.568 37.5709L17.3986 30.5571L14.6014 33.4164L21.7707 40.4302L24.568 37.5709ZM17.3958 33.4191L24.5651 26.4329L21.7735 23.5682L14.6042 30.5543L17.3958 33.4191ZM21.1693 25.0005V30.0814H25.1693V25.0005H21.1693ZM23.1667 32.0814L30.0917 32.0905L30.097 28.0905L23.172 28.0814L23.1667 32.0814ZM32.0944 30.0865L32.0809 23.2086L28.0809 23.2165L28.0944 30.0944L32.0944 30.0865ZM30.0809 21.2126H25V25.2126H30.0809V21.2126ZM26.4352 24.6055L33.4352 17.3935L30.5649 14.6076L23.5649 21.8196L26.4352 24.6055ZM30.5649 17.3935L37.5649 24.6055L40.4352 21.8196L33.4352 14.6076L30.5649 17.3935ZM39 21.2126L33.9468 21.2126V25.2126L39 25.2126V21.2126ZM31.9468 23.2165L31.9602 30.0987L35.9602 30.0909L35.9467 23.2086L31.9468 23.2165Z" fill="white" mask="url(#path-1-outside-1_6847_84663)"/>
</g>
<defs>
<filter id="filter0_d_6847_84663" x="9.13721" y="11.129" width="45.7344" height="45.7344" filterUnits="userSpaceOnUse" color-interpolation-filters="sRGB">
<feFlood flood-opacity="0" result="BackgroundImageFix"/>
<feColorMatrix in="SourceAlpha" type="matrix" values="0 0 0 0 0 0 0 0 0 0 0 0 0 0 0 0 0 0 127 0" result="hardAlpha"/>
<feOffset dy="2"/>
<feGaussianBlur stdDeviation="2"/>
<feComposite in2="hardAlpha" operator="out"/>
<feColorMatrix type="matrix" values="0 0 0 0 0 0 0 0 0 0 0 0 0 0 0 0 0 0 0.3 0"/>
<feBlend mode="normal" in2="BackgroundImageFix" result="effect1_dropShadow_6847_84663"/>
<feBlend mode="normal" in="SourceGraphic" in2="effect1_dropShadow_6847_84663" result="shape"/>
</filter>
</defs>
</svg>